<?xml version="1.0" encoding="utf-8" standalone="yes"?>
<!DOCTYPE svg PUBLIC "-//W3C//DTD SVG 1.1//EN" "http://www.w3.org/Graphics/SVG/1.1/DTD/svg11.dtd">
<svg width="458" height="451" viewBox="0 0 458 451" style="fill:none;stroke:none;fill-rule:evenodd;clip-rule:evenodd;stroke-linecap:round;stroke-linejoin:round;stroke-miterlimit:1.5;" version="1.1" xmlns="http://www.w3.org/2000/svg" xmlns:xlink="http://www.w3.org/1999/xlink"><style id="fontImports">@import url("https://fonts.googleapis.com/css2?family=Shantell+Sans:wght@300..800&amp;display=block");</style><g id="items" style="isolation: isolate"><g id="blend" style="mix-blend-mode:multiply"><g id="g-root-7.cu_sy_zn6favicrzt3-fill" data-item-order="999944246" data-item-id="7.cu_sy_zn6favicrzt3" data-item-class="Part Indexed Fill Stroke" data-item-index="7" data-renderer-id="0" transform="translate(3, 364.44140625)"><g id="7.cu_sy_zn6favicrzt3-fill" stroke="none" fill="#ffd0ce"><g><path d="M 127.865599 20.2322C 127.072599 29.7108 98.925799 34.4164 70.438399 39.6509C 49.240499 43.546 29.886599 45.288 22.274199 47.0136C 16.031099 48.4288 9.999999 52.8286 10.565499 61.629C 10.909699 66.9868 14.232099 71.4046 22.274199 72.035C 31.965999 72.7948 48.632699 69.9303 75.757899 65.242C 124.527599 56.8124 141.431599 48.3751 141.431599 31.5084C 141.431599 20.2322 126.082599 12.281 119.205599 10C 123.373599 11.6633 128.339599 14.562 127.865599 20.2322Z"></path></g></g></g><g id="g-root-7.cu_1_sy_v7cx6fics0lc-fill" data-item-order="999944248" data-item-id="7.cu_1_sy_v7cx6fics0lc" data-item-class="Part Indexed Fill Stroke" data-item-index="7" data-renderer-id="0" transform="translate(6.224365234375, 358.168212890625)"><g id="7.cu_1_sy_v7cx6fics0lc-fill" stroke="none" fill="#ffd0ce"><g><path d="M 38.0076 27.1771C 16.9757 24.0392 10.9029 18.5537 10 17.5313C 11.8743 19.5171 14.7922 20.8771 19.0033 21.2053C 28.7014 21.9611 45.379 19.1113 72.522 14.4469C 81.0593 12.9798 88.6207 11.5124 95.2864 10C 102.5445 12.184 110.341 13.5695 117.352 16.811C 120.339 18.2371 124.813 20.893 124.686 26.0148C 124.538 31.9893 114.66 35.7537 102.0009 38.9452C 101.6757 38.8312 100.3044 38.2844 99.9973 38.1713C 92.3051 35.2781 65.1564 31.2276 38.0076 27.1771Z"></path></g></g></g><g id="g-root-6.cu_sy_142dgc7ics26l-fill" data-item-order="999944250" data-item-id="6.cu_sy_142dgc7ics26l" data-item-class="Part Indexed Fill Stroke" data-item-index="6" data-renderer-id="0" transform="translate(3, 307.41632080078125)"><g id="6.cu_sy_142dgc7ics26l-fill" stroke="none" fill="#f0cffd"><g><path d="M 127.865599 20.2322C 127.072599 29.7108 98.925799 34.4164 70.438399 39.6509C 49.240499 43.546 29.886599 45.288 22.274199 47.0136C 16.031099 48.4288 9.999999 52.8286 10.565499 61.629C 10.909699 66.9868 14.232099 71.4046 22.274199 72.035C 31.965999 72.7948 48.632699 69.9303 75.757899 65.242C 124.527599 56.8124 141.431599 48.3751 141.431599 31.5084C 141.431599 20.2322 126.082599 12.281 119.205599 10C 123.373599 11.6633 128.339599 14.562 127.865599 20.2322Z"></path></g></g></g><g id="g-root-6.cu_1_sy_142dgc7ics26m-fill" data-item-order="999944252" data-item-id="6.cu_1_sy_142dgc7ics26m" data-item-class="Part Indexed Fill Stroke" data-item-index="6" data-renderer-id="0" transform="translate(6.224365234375, 301.14385986328125)"><g id="6.cu_1_sy_142dgc7ics26m-fill" stroke="none" fill="#f0cffd"><g><path d="M 38.0076 27.1771C 16.9757 24.0392 10.9029 18.5537 10 17.5313C 11.8743 19.5171 14.7922 20.8771 19.0033 21.2053C 28.7014 21.9611 45.379 19.1113 72.522 14.4469C 81.0593 12.9798 88.6207 11.5124 95.2864 10C 102.5445 12.184 110.341 13.5695 117.352 16.811C 120.339 18.2371 124.813 20.893 124.686 26.0148C 124.538 31.9893 114.66 35.7537 102.0009 38.9452C 101.6757 38.8312 100.3044 38.2844 99.9973 38.1713C 92.3051 35.2781 65.1564 31.2276 38.0076 27.1771Z"></path></g></g></g><g id="g-root-5.cu_sy_1hdtypjics0ln-fill" data-item-order="999944254" data-item-id="5.cu_sy_1hdtypjics0ln" data-item-class="Part Indexed Fill Stroke" data-item-index="5" data-renderer-id="0" transform="translate(3, 250.39208984375)"><g id="5.cu_sy_1hdtypjics0ln-fill" stroke="none" fill="#cedfff"><g><path d="M 127.865599 20.2322C 127.072599 29.7108 98.925799 34.4164 70.438399 39.6509C 49.240499 43.546 29.886599 45.288 22.274199 47.0136C 16.031099 48.4288 9.999999 52.8286 10.565499 61.629C 10.909699 66.9868 14.232099 71.4046 22.274199 72.035C 31.965999 72.7948 48.632699 69.9303 75.757899 65.242C 124.527599 56.8124 141.431599 48.3751 141.431599 31.5084C 141.431599 20.2322 126.082599 12.281 119.205599 10C 123.373599 11.6633 128.339599 14.562 127.865599 20.2322Z"></path></g></g></g><g id="g-root-5.cu_1_sy_1cy0gl3ics1dw-fill" data-item-order="999944256" data-item-id="5.cu_1_sy_1cy0gl3ics1dw" data-item-class="Part Indexed Fill Stroke" data-item-index="5" data-renderer-id="0" transform="translate(6.224365234375, 244.11895751953125)"><g id="5.cu_1_sy_1cy0gl3ics1dw-fill" stroke="none" fill="#cedfff"><g><path d="M 38.0076 27.1771C 16.9757 24.0392 10.9029 18.5537 10 17.5313C 11.8743 19.5171 14.7922 20.8771 19.0033 21.2053C 28.7014 21.9611 45.379 19.1113 72.522 14.4469C 81.0593 12.9798 88.6207 11.5124 95.2864 10C 102.5445 12.184 110.341 13.5695 117.352 16.811C 120.339 18.2371 124.813 20.893 124.686 26.0148C 124.538 31.9893 114.66 35.7537 102.0009 38.9452C 101.6757 38.8312 100.3044 38.2844 99.9973 38.1713C 92.3051 35.2781 65.1564 31.2276 38.0076 27.1771Z"></path></g></g></g><g id="g-root-4.cu_sy_1uonzzrics26h-fill" data-item-order="999944258" data-item-id="4.cu_sy_1uonzzrics26h" data-item-class="Part Indexed Fill Stroke" data-item-index="4" data-renderer-id="0" transform="translate(3, 193.36798095703125)"><g id="4.cu_sy_1uonzzrics26h-fill" stroke="none" fill="#fde6cf"><g><path d="M 127.865599 20.2322C 127.072599 29.7108 98.925799 34.4164 70.438399 39.6509C 49.240499 43.546 29.886599 45.288 22.274199 47.0136C 16.031099 48.4288 9.999999 52.8286 10.565499 61.629C 10.909699 66.9868 14.232099 71.4046 22.274199 72.035C 31.965999 72.7948 48.632699 69.9303 75.757899 65.242C 124.527599 56.8124 141.431599 48.3751 141.431599 31.5084C 141.431599 20.2322 126.082599 12.281 119.205599 10C 123.373599 11.6633 128.339599 14.562 127.865599 20.2322Z"></path></g></g></g><g id="g-root-4.cu_1_sy_1q9gyyficrzsy-fill" data-item-order="999944260" data-item-id="4.cu_1_sy_1q9gyyficrzsy" data-item-class="Part Indexed Fill Stroke" data-item-index="4" data-renderer-id="0" transform="translate(6.224365234375, 187.09552001953125)"><g id="4.cu_1_sy_1q9gyyficrzsy-fill" stroke="none" fill="#fde6cf"><g><path d="M 38.0076 27.1771C 16.9757 24.0392 10.9029 18.5537 10 17.5313C 11.8743 19.5171 14.7922 20.8771 19.0033 21.2053C 28.7014 21.9611 45.379 19.1113 72.522 14.4469C 81.0593 12.9798 88.6207 11.5124 95.2864 10C 102.5445 12.184 110.341 13.5695 117.352 16.811C 120.339 18.2371 124.813 20.893 124.686 26.0148C 124.538 31.9893 114.66 35.7537 102.0009 38.9452C 101.6757 38.8312 100.3044 38.2844 99.9973 38.1713C 92.3051 35.2781 65.1564 31.2276 38.0076 27.1771Z"></path></g></g></g><g id="g-root-3.cu_sy_3dg53ics1lb-fill" data-item-order="999944262" data-item-id="3.cu_sy_3dg53ics1lb" data-item-class="Part Indexed Fill Stroke" data-item-index="3" data-renderer-id="0" transform="translate(3, 136.34259033203125)"><g id="3.cu_sy_3dg53ics1lb-fill" stroke="none" fill="#fff9ce"><g><path d="M 127.865599 20.2322C 127.072599 29.7108 98.925799 34.4164 70.438399 39.6509C 49.240499 43.546 29.886599 45.288 22.274199 47.0136C 16.031099 48.4288 9.999999 52.8286 10.565499 61.629C 10.909699 66.9868 14.232099 71.4046 22.274199 72.035C 31.965999 72.7948 48.632699 69.9303 75.757899 65.242C 124.527599 56.8124 141.431599 48.3751 141.431599 31.5084C 141.431599 20.2322 126.082599 12.281 119.205599 10C 123.373599 11.6633 128.339599 14.562 127.865599 20.2322Z"></path></g></g></g><g id="g-root-3.cu_1_sy_4j6y9jics1kw-fill" data-item-order="999944264" data-item-id="3.cu_1_sy_4j6y9jics1kw" data-item-class="Part Indexed Fill Stroke" data-item-index="3" data-renderer-id="0" transform="translate(6.224365234375, 130.07012939453125)"><g id="3.cu_1_sy_4j6y9jics1kw-fill" stroke="none" fill="#fff9ce"><g><path d="M 38.0076 27.1771C 16.9757 24.0392 10.9029 18.5537 10 17.5313C 11.8743 19.5171 14.7922 20.8771 19.0033 21.2053C 28.7014 21.9611 45.379 19.1113 72.522 14.4469C 81.0593 12.9798 88.6207 11.5124 95.2864 10C 102.5445 12.184 110.341 13.5695 117.352 16.811C 120.339 18.2371 124.813 20.893 124.686 26.0148C 124.538 31.9893 114.66 35.7537 102.0009 38.9452C 101.6757 38.8312 100.3044 38.2844 99.9973 38.1713C 92.3051 35.2781 65.1564 31.2276 38.0076 27.1771Z"></path></g></g></g><g id="g-root-2.cu_sy_detyifics00d-fill" data-item-order="999944266" data-item-id="2.cu_sy_detyifics00d" data-item-class="Part Indexed Fill Stroke" data-item-index="2" data-renderer-id="0" transform="translate(3, 79.31817626953125)"><g id="2.cu_sy_detyifics00d-fill" stroke="none" fill="#ecf7d5"><g><path d="M 127.865599 20.2322C 127.072599 29.7108 98.925799 34.4164 70.438399 39.6509C 49.240499 43.546 29.886599 45.288 22.274199 47.0136C 16.031099 48.4288 9.999999 52.8286 10.565499 61.629C 10.909699 66.9868 14.232099 71.4046 22.274199 72.035C 31.965999 72.7948 48.632699 69.9303 75.757899 65.242C 124.527599 56.8124 141.431599 48.3751 141.431599 31.5084C 141.431599 20.2322 126.082599 12.281 119.205599 10C 123.373599 11.6633 128.339599 14.562 127.865599 20.2322Z"></path></g></g></g><g id="g-root-2.cu_1_sy_8z0gdzics0sm-fill" data-item-order="999944268" data-item-id="2.cu_1_sy_8z0gdzics0sm" data-item-class="Part Indexed Fill Stroke" data-item-index="2" data-renderer-id="0" transform="translate(6.224365234375, 73.04473876953125)"><g id="2.cu_1_sy_8z0gdzics0sm-fill" stroke="none" fill="#ecf7d5"><g><path d="M 38.0076 27.1771C 16.9757 24.0392 10.9029 18.5537 10 17.5313C 11.8743 19.5171 14.7922 20.8771 19.0033 21.2053C 28.7014 21.9611 45.379 19.1113 72.522 14.4469C 81.0593 12.9798 88.6207 11.5124 95.2864 10C 102.5445 12.184 110.341 13.5695 117.352 16.811C 120.339 18.2371 124.813 20.893 124.686 26.0148C 124.538 31.9893 114.66 35.7537 102.0009 38.9452C 101.6757 38.8312 100.3044 38.2844 99.9973 38.1713C 92.3051 35.2781 65.1564 31.2276 38.0076 27.1771Z"></path></g></g></g><g id="g-root-1.cu_sy_zlb01jics0si-fill" data-item-order="999944270" data-item-id="1.cu_sy_zlb01jics0si" data-item-class="Part Indexed Indexed_1 Fill Stroke" data-item-index="1" data-renderer-id="0" transform="translate(3, 22.29376220703125)"><g id="1.cu_sy_zlb01jics0si-fill" stroke="none" fill="#d5f7e8"><g><path d="M 127.865599 20.2322C 127.072599 29.7108 98.925799 34.4164 70.438399 39.6509C 49.240499 43.546 29.886599 45.288 22.274199 47.0136C 16.031099 48.4288 9.999999 52.8286 10.565499 61.629C 10.909699 66.9868 14.232099 71.4046 22.274199 72.035C 31.965999 72.7948 48.632699 69.9303 75.757899 65.242C 124.527599 56.8124 141.431599 48.3751 141.431599 31.5084C 141.431599 20.2322 126.082599 12.281 119.205599 10C 123.373599 11.6633 128.339599 14.562 127.865599 20.2322Z"></path></g></g></g><g id="g-root-1.cu_1_sy_qpnzsnics1l7-fill" data-item-order="999944272" data-item-id="1.cu_1_sy_qpnzsnics1l7" data-item-class="Part Indexed Indexed_1 Fill Stroke" data-item-index="1" data-renderer-id="0" transform="translate(3.5655517578125, 3)"><g id="1.cu_1_sy_qpnzsnics1l7-fill" stroke="none" fill="#d5f7e8"><g><path d="M 21.6823 10.759802C 31.374 10.000002 48.067 12.416802 75.1922 17.105202C 90.003 19.665202 106.1882 23.441602 120.011 29.832302C 122.998 31.258302 127.472 33.914302 127.345 39.036102C 127.196 45.010602 117.319 48.775002 104.6598 51.966502C 104.3346 51.852502 102.9633 51.305702 102.6561 51.192602C 78.8756 42.248102 51.5585 39.866802 26.2368 35.826002C 24.7636 36.385802 21.9403 36.588802 20.221 36.385802C 15.9301 35.288202 10 31.995102 10 23.070502C 10 18.441102 13.6401 11.390202 21.6823 10.759802Z"></path></g></g></g><g id="g-root-1.Ellipse_sy_m9uho7ics2dg-fill" data-item-order="999944274" data-item-id="1.Ellipse_sy_m9uho7ics2dg" data-item-class="Part Indexed Indexed_1 Fill Stroke" data-item-index="1" data-renderer-id="0" transform="translate(3.5270843505859375, 3.80084228515625)"><g id="1.Ellipse_sy_m9uho7ics2dg-fill" stroke="none" fill="#d5f7e8"><g><path d="M 10.001843 22.846066C 9.999999 29.94019 15.500659 35.692136 22.286706 35.692136C 29.072752 35.692136 34.573413 29.94019 34.571569 22.846066C 34.573413 15.751942 29.072752 9.999996 22.286706 9.999996C 15.500659 9.999996 9.999999 15.751942 10.001843 22.846066"></path></g></g></g><g id="g-root-5_dj7d9zicp8g0-fill" data-item-order="1000000000" data-item-id="5_dj7d9zicp8g0" data-item-class="Icon Stroke Indexed" data-item-index="2" data-renderer-id="0" transform="translate(171.52859497070312, 81.62188720703125)"></g><g id="g-root-tx_minimize_1448vljics172-fill" data-item-order="1000000000" data-item-id="tx_minimize_1448vljics172" data-item-class="Label Stroke Indexed ColorStrokeBlack" data-item-index="2" data-renderer-id="0" transform="translate(219.52859497070312, 87.62188720703125)"><g id="tx_minimize_1448vljics172-fill" stroke="none" fill="#484848"><g><text style="font: 20px &quot;Shantell Sans&quot;, cursive; white-space: pre;"><tspan x="12" y="35.6" dominant-baseline="ideographic">Minimize</tspan></text></g></g></g><g id="g-root-thro_v9uwonicp98n-fill" data-item-order="1000000000" data-item-id="thro_v9uwonicp98n" data-item-class="Icon Stroke Indexed" data-item-index="3" data-renderer-id="0" transform="translate(171.52859497070312, 141.62188720703125)"></g><g id="g-root-tx_separate_1hfpdyvicrzm5-fill" data-item-order="1000000000" data-item-id="tx_separate_1hfpdyvicrzm5" data-item-class="Label Stroke Indexed ColorStrokeBlack" data-item-index="3" data-renderer-id="0" transform="translate(219.52859497070312, 147.62188720703125)"><g id="tx_separate_1hfpdyvicrzm5-fill" stroke="none" fill="#484848"><g><text style="font: 20px &quot;Shantell Sans&quot;, cursive; white-space: pre;"><tspan x="12" y="35.6" dominant-baseline="ideographic">Separate</tspan></text></g></g></g><g id="g-root-1_18lbf1zicp7nq-fill" data-item-order="1000000000" data-item-id="1_18lbf1zicp7nq" data-item-class="Icon Stroke Indexed" data-item-index="4" data-renderer-id="0" transform="translate(171.52859497070312, 201.62188720703125)"></g><g id="g-root-tx_reuserep_1qapx4nics1z8-fill" data-item-order="1000000000" data-item-id="tx_reuserep_1qapx4nics1z8" data-item-class="Label Stroke Indexed ColorStrokeBlack" data-item-index="4" data-renderer-id="0" transform="translate(219.52859497070312, 207.62188720703125)"><g id="tx_reuserep_1qapx4nics1z8-fill" stroke="none" fill="#484848"><g><text style="font: 20px &quot;Shantell Sans&quot;, cursive; white-space: pre;"><tspan x="12" y="35.6" dominant-baseline="ideographic">Reuse/Repair</tspan></text></g></g></g><g id="g-root-tx_dispose_mbpwxjics1e1-fill" data-item-order="1000000000" data-item-id="tx_dispose_mbpwxjics1e1" data-item-class="Label Stroke Indexed ColorStrokeBlack" data-item-index="7" data-renderer-id="0" transform="translate(219.52859497070312, 387.6219482421875)"><g id="tx_dispose_mbpwxjics1e1-fill" stroke="none" fill="#484848"><g><text style="font: 20px &quot;Shantell Sans&quot;, cursive; white-space: pre;"><tspan x="12" y="35.6" dominant-baseline="ideographic">Dispose</tspan></text></g></g></g><g id="g-root-bag_1qbyygnicp8gd-fill" data-item-order="1000000000" data-item-id="bag_1qbyygnicp8gd" data-item-class="Icon Stroke Indexed" data-item-index="5" data-renderer-id="0" transform="translate(171.52859497070312, 261.62188720703125)"></g><g id="g-root-tx_recycle_4l2divics0lf-fill" data-item-order="1000000000" data-item-id="tx_recycle_4l2divics0lf" data-item-class="Label Stroke Indexed ColorStrokeBlack" data-item-index="5" data-renderer-id="0" transform="translate(219.52859497070312, 267.62188720703125)"><g id="tx_recycle_4l2divics0lf-fill" stroke="none" fill="#484848"><g><text style="font: 20px &quot;Shantell Sans&quot;, cursive; white-space: pre;"><tspan x="12" y="35.6" dominant-baseline="ideographic">Recycle</tspan></text></g></g></g><g id="g-root-2_1q5q7ljicql1d-fill" data-item-order="1000000000" data-item-id="2_1q5q7ljicql1d" data-item-class="Icon Stroke Indexed Indexed_1" data-item-index="1" data-renderer-id="0" transform="translate(171.52859497070312, 21.62188720703125)"></g><g id="g-root-wate_dhyf3ricp69w-fill" data-item-order="1000000000" data-item-id="wate_dhyf3ricp69w" data-item-class="Icon Stroke Indexed" data-item-index="6" data-renderer-id="0" transform="translate(171.52859497070312, 321.62188720703125)"></g><g id="g-root-tx_treatmen_90vvnbicrzt6-fill" data-item-order="1000000000" data-item-id="tx_treatmen_90vvnbicrzt6" data-item-class="Label Stroke Indexed ColorStrokeBlack" data-item-index="6" data-renderer-id="0" transform="translate(219.52859497070312, 327.62188720703125)"><g id="tx_treatmen_90vvnbicrzt6-fill" stroke="none" fill="#484848"><g><text style="font: 20px &quot;Shantell Sans&quot;, cursive; white-space: pre;"><tspan x="12" y="35.6" dominant-baseline="ideographic">Treatment/Processing</tspan></text></g></g></g><g id="g-root-2_qssgdzicp7ur-fill" data-item-order="1000000000" data-item-id="2_qssgdzicp7ur" data-item-class="Icon Stroke Indexed" data-item-index="7" data-renderer-id="0" transform="translate(171.52859497070312, 381.6219482421875)"></g><g id="g-root-tx_avoid_zofdh3ics1zb-fill" data-item-order="1000000000" data-item-id="tx_avoid_zofdh3ics1zb" data-item-class="Label Stroke Indexed Indexed_1 ColorStrokeBlack" data-item-index="1" data-renderer-id="0" transform="translate(219.52859497070312, 27.62188720703125)"><g id="tx_avoid_zofdh3ics1zb-fill" stroke="none" fill="#484848"><g><text style="font: 20px &quot;Shantell Sans&quot;, cursive; white-space: pre;"><tspan x="12" y="35.6" dominant-baseline="ideographic">Avoid</tspan></text></g></g></g><g id="g-root-7.cu_sy_zn6favicrzt3-stroke" data-item-order="999944246" data-item-id="7.cu_sy_zn6favicrzt3" data-item-class="Part Indexed Fill Stroke" data-item-index="7" data-renderer-id="0" transform="translate(3, 364.44140625)"><g id="7.cu_sy_zn6favicrzt3-stroke" fill="none" stroke-linecap="round" stroke-linejoin="round" stroke-miterlimit="4" stroke="#e15e5a" stroke-width="2"><g><path d="M 70.438399 39.6509C 98.925799 34.4164 127.072699 29.7108 127.865499 20.2322C 128.339799 14.562 123.373999 11.6633 119.205999 10C 126.082599 12.281 141.431299 20.2322 141.431299 31.5084C 141.431299 48.3752 124.527999 56.8124 75.757899 65.242C 48.632699 69.9303 31.965999 72.7948 22.274199 72.035C 14.232099 71.4046 10.909699 66.9868 10.565499 61.629C 9.999999 52.8286 16.031099 48.4288 22.274199 47.0136C 29.886599 45.288 49.240499 43.546 70.438399 39.6509Z"></path></g></g></g><g id="g-root-7.cu_1_sy_v7cx6fics0lc-stroke" data-item-order="999944248" data-item-id="7.cu_1_sy_v7cx6fics0lc" data-item-class="Part Indexed Fill Stroke" data-item-index="7" data-renderer-id="0" transform="translate(6.224365234375, 358.168212890625)"><g id="7.cu_1_sy_v7cx6fics0lc-stroke" fill="none" stroke-linecap="round" stroke-linejoin="round" stroke-miterlimit="4" stroke="#e15e5a" stroke-width="2"><g><path d="M 38.0076 27.1771C 16.9757 24.0392 10.9029 18.5537 10 17.5313C 11.8743 19.5171 14.7922 20.8771 19.0033 21.2053C 28.7014 21.9611 45.379 19.1113 72.522 14.4469C 81.0593 12.9798 88.6207 11.5124 95.2864 10C 102.5445 12.184 110.3408 13.5695 117.3519 16.811C 120.3393 18.2371 124.8131 20.893 124.6859 26.0148C 124.5376 31.9893 114.6599 35.7537 102.0009 38.9452C 101.6757 38.8312 100.3044 38.2844 99.9973 38.1713C 92.3051 35.2781 65.1564 31.2276 38.0076 27.1771ZM 117.3519 16.811L 117.5995 16.9255"></path></g></g></g><g id="g-root-6.cu_sy_142dgc7ics26l-stroke" data-item-order="999944250" data-item-id="6.cu_sy_142dgc7ics26l" data-item-class="Part Indexed Fill Stroke" data-item-index="6" data-renderer-id="0" transform="translate(3, 307.41632080078125)"><g id="6.cu_sy_142dgc7ics26l-stroke" fill="none" stroke-linecap="round" stroke-linejoin="round" stroke-miterlimit="4" stroke="#b65edf" stroke-width="2"><g><path d="M 70.438399 39.6509C 98.925799 34.4164 127.072699 29.7108 127.865499 20.2322C 128.339799 14.562 123.373999 11.6633 119.205999 10C 126.082599 12.281 141.431299 20.2322 141.431299 31.5084C 141.431299 48.3752 124.527999 56.8124 75.757899 65.242C 48.632699 69.9303 31.965999 72.7948 22.274199 72.035C 14.232099 71.4046 10.909699 66.9868 10.565499 61.629C 9.999999 52.8286 16.031099 48.4288 22.274199 47.0136C 29.886599 45.288 49.240499 43.546 70.438399 39.6509Z"></path></g></g></g><g id="g-root-6.cu_1_sy_142dgc7ics26m-stroke" data-item-order="999944252" data-item-id="6.cu_1_sy_142dgc7ics26m" data-item-class="Part Indexed Fill Stroke" data-item-index="6" data-renderer-id="0" transform="translate(6.224365234375, 301.14385986328125)"><g id="6.cu_1_sy_142dgc7ics26m-stroke" fill="none" stroke-linecap="round" stroke-linejoin="round" stroke-miterlimit="4" stroke="#b65edf" stroke-width="2"><g><path d="M 38.0076 27.1771C 16.9757 24.0392 10.9029 18.5537 10 17.5313C 11.8743 19.5171 14.7922 20.8771 19.0033 21.2053C 28.7014 21.9611 45.379 19.1113 72.522 14.4469C 81.0593 12.9798 88.6207 11.5124 95.2864 10C 102.5445 12.184 110.3408 13.5695 117.3519 16.811C 120.3393 18.2371 124.8131 20.893 124.6859 26.0148C 124.5376 31.9893 114.6599 35.7537 102.0009 38.9452C 101.6757 38.8312 100.3044 38.2844 99.9973 38.1713C 92.3051 35.2781 65.1564 31.2276 38.0076 27.1771ZM 117.3519 16.811L 117.5995 16.9255"></path></g></g></g><g id="g-root-5.cu_sy_1hdtypjics0ln-stroke" data-item-order="999944254" data-item-id="5.cu_sy_1hdtypjics0ln" data-item-class="Part Indexed Fill Stroke" data-item-index="5" data-renderer-id="0" transform="translate(3, 250.39208984375)"><g id="5.cu_sy_1hdtypjics0ln-stroke" fill="none" stroke-linecap="round" stroke-linejoin="round" stroke-miterlimit="4" stroke="#4682e3" stroke-width="2"><g><path d="M 70.438399 39.6509C 98.925799 34.4164 127.072699 29.7108 127.865499 20.2322C 128.339799 14.562 123.373999 11.6633 119.205999 10C 126.082599 12.281 141.431299 20.2322 141.431299 31.5084C 141.431299 48.3752 124.527999 56.8124 75.757899 65.242C 48.632699 69.9303 31.965999 72.7948 22.274199 72.035C 14.232099 71.4046 10.909699 66.9868 10.565499 61.629C 9.999999 52.8286 16.031099 48.4288 22.274199 47.0136C 29.886599 45.288 49.240499 43.546 70.438399 39.6509Z"></path></g></g></g><g id="g-root-5.cu_1_sy_1cy0gl3ics1dw-stroke" data-item-order="999944256" data-item-id="5.cu_1_sy_1cy0gl3ics1dw" data-item-class="Part Indexed Fill Stroke" data-item-index="5" data-renderer-id="0" transform="translate(6.224365234375, 244.11895751953125)"><g id="5.cu_1_sy_1cy0gl3ics1dw-stroke" fill="none" stroke-linecap="round" stroke-linejoin="round" stroke-miterlimit="4" stroke="#4682e3" stroke-width="2"><g><path d="M 38.0076 27.1771C 16.9757 24.0392 10.9029 18.5537 10 17.5313C 11.8743 19.5171 14.7922 20.8771 19.0033 21.2053C 28.7014 21.9611 45.379 19.1113 72.522 14.4469C 81.0593 12.9798 88.6207 11.5124 95.2864 10C 102.5445 12.184 110.3408 13.5695 117.3519 16.811C 120.3393 18.2371 124.8131 20.893 124.6859 26.0148C 124.5376 31.9893 114.6599 35.7537 102.0009 38.9452C 101.6757 38.8312 100.3044 38.2844 99.9973 38.1713C 92.3051 35.2781 65.1564 31.2276 38.0076 27.1771ZM 117.3519 16.811L 117.5995 16.9255"></path></g></g></g><g id="g-root-4.cu_sy_1uonzzrics26h-stroke" data-item-order="999944258" data-item-id="4.cu_sy_1uonzzrics26h" data-item-class="Part Indexed Fill Stroke" data-item-index="4" data-renderer-id="0" transform="translate(3, 193.36798095703125)"><g id="4.cu_sy_1uonzzrics26h-stroke" fill="none" stroke-linecap="round" stroke-linejoin="round" stroke-miterlimit="4" stroke="#dd8433" stroke-width="2"><g><path d="M 70.438399 39.6509C 98.925799 34.4164 127.072699 29.7108 127.865499 20.2322C 128.339799 14.562 123.373999 11.6633 119.205999 10C 126.082599 12.281 141.431299 20.2322 141.431299 31.5084C 141.431299 48.3752 124.527999 56.8124 75.757899 65.242C 48.632699 69.9303 31.965999 72.7948 22.274199 72.035C 14.232099 71.4046 10.909699 66.9868 10.565499 61.629C 9.999999 52.8286 16.031099 48.4288 22.274199 47.0136C 29.886599 45.288 49.240499 43.546 70.438399 39.6509Z"></path></g></g></g><g id="g-root-4.cu_1_sy_1q9gyyficrzsy-stroke" data-item-order="999944260" data-item-id="4.cu_1_sy_1q9gyyficrzsy" data-item-class="Part Indexed Fill Stroke" data-item-index="4" data-renderer-id="0" transform="translate(6.224365234375, 187.09552001953125)"><g id="4.cu_1_sy_1q9gyyficrzsy-stroke" fill="none" stroke-linecap="round" stroke-linejoin="round" stroke-miterlimit="4" stroke="#dd8433" stroke-width="2"><g><path d="M 38.0076 27.1771C 16.9757 24.0392 10.9029 18.5537 10 17.5313C 11.8743 19.5171 14.7922 20.8771 19.0033 21.2053C 28.7014 21.9611 45.379 19.1113 72.522 14.4469C 81.0593 12.9798 88.6207 11.5124 95.2864 10C 102.5445 12.184 110.3408 13.5695 117.3519 16.811C 120.3393 18.2371 124.8131 20.893 124.6859 26.0148C 124.5376 31.9893 114.6599 35.7537 102.0009 38.9452C 101.6757 38.8312 100.3044 38.2844 99.9973 38.1713C 92.3051 35.2781 65.1564 31.2276 38.0076 27.1771ZM 117.3519 16.811L 117.5995 16.9255"></path></g></g></g><g id="g-root-3.cu_sy_3dg53ics1lb-stroke" data-item-order="999944262" data-item-id="3.cu_sy_3dg53ics1lb" data-item-class="Part Indexed Fill Stroke" data-item-index="3" data-renderer-id="0" transform="translate(3, 136.34259033203125)"><g id="3.cu_sy_3dg53ics1lb-stroke" fill="none" stroke-linecap="round" stroke-linejoin="round" stroke-miterlimit="4" stroke="#e3cd09" stroke-width="2"><g><path d="M 70.438399 39.6509C 98.925799 34.4164 127.072699 29.7108 127.865499 20.2322C 128.339799 14.562 123.373999 11.6633 119.205999 10C 126.082599 12.281 141.431299 20.2322 141.431299 31.5084C 141.431299 48.3752 124.527999 56.8124 75.757899 65.242C 48.632699 69.9303 31.965999 72.7948 22.274199 72.035C 14.232099 71.4046 10.909699 66.9868 10.565499 61.629C 9.999999 52.8286 16.031099 48.4288 22.274199 47.0136C 29.886599 45.288 49.240499 43.546 70.438399 39.6509Z"></path></g></g></g><g id="g-root-3.cu_1_sy_4j6y9jics1kw-stroke" data-item-order="999944264" data-item-id="3.cu_1_sy_4j6y9jics1kw" data-item-class="Part Indexed Fill Stroke" data-item-index="3" data-renderer-id="0" transform="translate(6.224365234375, 130.07012939453125)"><g id="3.cu_1_sy_4j6y9jics1kw-stroke" fill="none" stroke-linecap="round" stroke-linejoin="round" stroke-miterlimit="4" stroke="#e3cd09" stroke-width="2"><g><path d="M 38.0076 27.1771C 16.9757 24.0392 10.9029 18.5537 10 17.5313C 11.8743 19.5171 14.7922 20.8771 19.0033 21.2053C 28.7014 21.9611 45.379 19.1113 72.522 14.4469C 81.0593 12.9798 88.6207 11.5124 95.2864 10C 102.5445 12.184 110.3408 13.5695 117.3519 16.811C 120.3393 18.2371 124.8131 20.893 124.6859 26.0148C 124.5376 31.9893 114.6599 35.7537 102.0009 38.9452C 101.6757 38.8312 100.3044 38.2844 99.9973 38.1713C 92.3051 35.2781 65.1564 31.2276 38.0076 27.1771ZM 117.3519 16.811L 117.5995 16.9255"></path></g></g></g><g id="g-root-2.cu_sy_detyifics00d-stroke" data-item-order="999944266" data-item-id="2.cu_sy_detyifics00d" data-item-class="Part Indexed Fill Stroke" data-item-index="2" data-renderer-id="0" transform="translate(3, 79.31817626953125)"><g id="2.cu_sy_detyifics00d-stroke" fill="none" stroke-linecap="round" stroke-linejoin="round" stroke-miterlimit="4" stroke="#93c131" stroke-width="2"><g><path d="M 70.438399 39.6509C 98.925799 34.4164 127.072699 29.7108 127.865499 20.2322C 128.339799 14.562 123.373999 11.6633 119.205999 10C 126.082599 12.281 141.431299 20.2322 141.431299 31.5084C 141.431299 48.3752 124.527999 56.8124 75.757899 65.242C 48.632699 69.9303 31.965999 72.7948 22.274199 72.035C 14.232099 71.4046 10.909699 66.9868 10.565499 61.629C 9.999999 52.8286 16.031099 48.4288 22.274199 47.0136C 29.886599 45.288 49.240499 43.546 70.438399 39.6509Z"></path></g></g></g><g id="g-root-2.cu_1_sy_8z0gdzics0sm-stroke" data-item-order="999944268" data-item-id="2.cu_1_sy_8z0gdzics0sm" data-item-class="Part Indexed Fill Stroke" data-item-index="2" data-renderer-id="0" transform="translate(6.224365234375, 73.04473876953125)"><g id="2.cu_1_sy_8z0gdzics0sm-stroke" fill="none" stroke-linecap="round" stroke-linejoin="round" stroke-miterlimit="4" stroke="#93c131" stroke-width="2"><g><path d="M 38.0076 27.1771C 16.9757 24.0392 10.9029 18.5537 10 17.5313C 11.8743 19.5171 14.7922 20.8771 19.0033 21.2053C 28.7014 21.9611 45.379 19.1113 72.522 14.4469C 81.0593 12.9798 88.6207 11.5124 95.2864 10C 102.5445 12.184 110.3408 13.5695 117.3519 16.811C 120.3393 18.2371 124.8131 20.893 124.6859 26.0148C 124.5376 31.9893 114.6599 35.7537 102.0009 38.9452C 101.6757 38.8312 100.3044 38.2844 99.9973 38.1713C 92.3051 35.2781 65.1564 31.2276 38.0076 27.1771ZM 117.3519 16.811L 117.5995 16.9255"></path></g></g></g><g id="g-root-1.cu_sy_zlb01jics0si-stroke" data-item-order="999944270" data-item-id="1.cu_sy_zlb01jics0si" data-item-class="Part Indexed Indexed_1 Fill Stroke" data-item-index="1" data-renderer-id="0" transform="translate(3, 22.29376220703125)"><g id="1.cu_sy_zlb01jics0si-stroke" fill="none" stroke-linecap="round" stroke-linejoin="round" stroke-miterlimit="4" stroke="#3bc482" stroke-width="2"><g><path d="M 70.438399 39.6509C 98.925799 34.4164 127.072699 29.7108 127.865499 20.2322C 128.339799 14.562 123.373999 11.6633 119.205999 10C 126.082599 12.281 141.431299 20.2322 141.431299 31.5084C 141.431299 48.3752 124.527999 56.8124 75.757899 65.242C 48.632699 69.9303 31.965999 72.7948 22.274199 72.035C 14.232099 71.4046 10.909699 66.9868 10.565499 61.629C 9.999999 52.8286 16.031099 48.4288 22.274199 47.0136C 29.886599 45.288 49.240499 43.546 70.438399 39.6509Z"></path></g></g></g><g id="g-root-1.cu_1_sy_qpnzsnics1l7-stroke" data-item-order="999944272" data-item-id="1.cu_1_sy_qpnzsnics1l7" data-item-class="Part Indexed Indexed_1 Fill Stroke" data-item-index="1" data-renderer-id="0" transform="translate(3.5655517578125, 3)"><g id="1.cu_1_sy_qpnzsnics1l7-stroke" fill="none" stroke-linecap="round" stroke-linejoin="round" stroke-miterlimit="4" stroke="#3bc482" stroke-width="2"><g><path d="M 120.0108 29.832302C 122.9982 31.258302 127.4718 33.914302 127.3446 39.036102C 127.1963 45.010602 117.3187 48.775002 104.6598 51.966502C 104.3346 51.852502 102.9633 51.305702 102.6561 51.192602C 78.8756 42.248102 51.5585 39.866802 26.2368 35.826002C 24.7636 36.385802 21.9403 36.588802 20.221 36.385802C 15.9301 35.288202 10 31.995102 10 23.070502C 10 18.441102 13.6401 11.390202 21.6823 10.759802C 31.374 10.000002 48.067 12.416802 75.1922 17.105202C 90.003 19.665102 106.1882 23.441602 120.0108 29.832302ZM 120.0108 29.832302L 120.2583 29.946702"></path></g></g></g><g id="g-root-1.Ellipse_sy_m9uho7ics2dg-stroke" data-item-order="999944274" data-item-id="1.Ellipse_sy_m9uho7ics2dg" data-item-class="Part Indexed Indexed_1 Fill Stroke" data-item-index="1" data-renderer-id="0" transform="translate(3.5270843505859375, 3.80084228515625)"><g id="1.Ellipse_sy_m9uho7ics2dg-stroke" fill="none" stroke-linecap="round" stroke-linejoin="round" stroke-miterlimit="4" stroke="#3bc482" stroke-width="2"><g><path d="M 10.001843 22.846066C 9.999999 29.94019 15.500659 35.692136 22.286706 35.692136C 29.072752 35.692136 34.573413 29.94019 34.571569 22.846066C 34.573413 15.751942 29.072752 9.999996 22.286706 9.999996C 15.500659 9.999996 9.999999 15.751942 10.001843 22.846066"></path></g></g></g><g id="g-root-5_dj7d9zicp8g0-stroke" data-item-order="1000000000" data-item-id="5_dj7d9zicp8g0" data-item-class="Icon Stroke Indexed" data-item-index="2" data-renderer-id="0" transform="translate(171.52859497070312, 81.62188720703125)"><g id="5_dj7d9zicp8g0-stroke" fill="none" stroke-linecap="round" stroke-linejoin="round" stroke-miterlimit="4" stroke="#93c131" stroke-width="2"><g><path d="M 11.285714 25.428572L 11.285714 13.857142C 11.285714 12.436982 12.436982 11.285714 13.857142 11.285714L 42.142857 11.285714C 43.563019 11.285714 44.714287 12.436982 44.714287 13.857142L 44.714287 42.142857C 44.714287 43.563019 43.563019 44.714287 42.142857 44.714287L 30.571428 44.714287M 20.285713 44.714287L 11.285714 44.714287L 11.285714 35.714287M 11.285714 44.714287L 28 28"></path></g></g></g><g id="g-root-tx_minimize_1448vljics172-stroke" data-item-order="1000000000" data-item-id="tx_minimize_1448vljics172" data-item-class="Label Stroke Indexed ColorStrokeBlack" data-item-index="2" data-renderer-id="0" transform="translate(219.52859497070312, 87.62188720703125)"></g><g id="g-root-thro_v9uwonicp98n-stroke" data-item-order="1000000000" data-item-id="thro_v9uwonicp98n" data-item-class="Icon Stroke Indexed" data-item-index="3" data-renderer-id="0" transform="translate(171.52859497070312, 141.62188720703125)"><g id="thro_v9uwonicp98n-stroke" fill="none" stroke-linecap="round" stroke-linejoin="round" stroke-miterlimit="4" stroke="#e3cd09" stroke-width="2"><g><path d="M 31.75 14.5C 31.75 16.571068 33.428932 18.25 35.5 18.25C 37.571068 18.25 39.25 16.571068 39.25 14.5C 39.25 12.428932 37.571068 10.75 35.5 10.75C 33.428932 10.75 31.75 12.428932 31.75 14.5M 28.434999 26.5C 33.130001 25.84 34.119999 23.98 35.395 21.610001L 35.785 20.889999C 36.216991 20.03327 37.144749 19.544743 38.095573 19.673325C 39.046402 19.801907 39.811077 20.519302 40 21.460001L 45.25 42.459999C 45.47892 43.252235 45.256104 44.106224 44.669312 44.685631C 44.082516 45.265034 43.225777 45.477013 42.436504 45.238075C 41.647232 44.999138 41.05191 44.347576 40.885002 43.540001L 39.010002 36.040001C 37.645 38.079998 37.239998 39.385002 36.25 43.540001C 35.960049 44.749504 34.744503 45.494949 33.535 45.204998C 32.325497 44.915047 31.58005 43.699501 31.869999 42.489998C 33.369999 36.07 33.955002 35.185001 37.584999 30.49L 36.864998 27.58C 34.730484 29.575226 31.978668 30.781792 29.065001 31C 27.822359 31.173969 26.673969 30.30764 26.5 29.065001C 26.326031 27.822359 27.19236 26.673969 28.434999 26.5ZM 12.25 40.885002L 12.25 30.25L 23.26 30.25C 23.700064 30.245016 24.120115 30.43354 24.408894 30.765636C 24.697674 31.097731 24.826042 31.539892 24.76 31.974998L 22.960001 43.974998C 22.847845 44.714558 22.207966 45.258457 21.459999 45.25L 13 45.25M 12.25 30.25L 20.5 19.75M 10.75 43C 10.75 44.242641 11.75736 45.25 13 45.25C 14.24264 45.25 15.25 44.242641 15.25 43C 15.25 41.757362 14.24264 40.75 13 40.75C 11.75736 40.75 10.75 41.757362 10.75 43M 19.75 25.75C 19.75 26.578428 20.421574 27.25 21.25 27.25C 22.078428 27.25 22.75 26.578428 22.75 25.75C 22.75 24.921572 22.078428 24.25 21.25 24.25C 20.421574 24.25 19.75 24.921572 19.75 25.75M 25 22.375C 25 22.167892 24.832108 22 24.625 22L 24.625 22C 24.417892 22 24.25 22.167892 24.25 22.375C 24.25 22.582108 24.417892 22.75 24.625 22.75C 24.832108 22.75 25 22.582108 25 22.375"></path></g></g></g><g id="g-root-tx_separate_1hfpdyvicrzm5-stroke" data-item-order="1000000000" data-item-id="tx_separate_1hfpdyvicrzm5" data-item-class="Label Stroke Indexed ColorStrokeBlack" data-item-index="3" data-renderer-id="0" transform="translate(219.52859497070312, 147.62188720703125)"></g><g id="g-root-1_18lbf1zicp7nq-stroke" data-item-order="1000000000" data-item-id="1_18lbf1zicp7nq" data-item-class="Icon Stroke Indexed" data-item-index="4" data-renderer-id="0" transform="translate(171.52859497070312, 201.62188720703125)"><g id="1_18lbf1zicp7nq-stroke" fill="none" stroke-linecap="round" stroke-linejoin="round" stroke-miterlimit="4" stroke="#dd8433" stroke-width="2"><g><path d="M 25.428572 35.919998L 25.428572 41.062855C 25.414709 41.464626 25.084866 41.783092 24.682856 41.782856L 19.282856 41.782856C 18.394968 41.633282 17.591198 41.167458 17.02 40.471428M 17.02 40.497143C 17.02 40.497143 14.217143 38.054283 20.722857 31.548571L 23.628572 31.548571L 19.282856 24.374287L 11.285714 24.374287L 13.471429 27.177143C 13.471429 27.177143 12.005714 27.434286 12.005714 29.465715C 12.774501 33.489796 14.49366 37.27195 17.02 40.497143ZM 36.614285 26.379999L 40.419998 23.808571C 40.591991 23.732645 40.788006 23.732645 40.959995 23.808571C 41.16119 23.832102 41.340866 23.945581 41.44857 24.117142L 44.405716 28.539999C 44.763897 29.260813 44.763897 30.107758 44.405716 30.828571M 44.508572 30.571428C 44.508572 30.571428 43.685715 33.914288 35.174286 33.142857L 35.174286 30.905714L 30.185715 37.437141L 34.917141 44.714287L 35.174286 41.294285C 35.174286 41.294285 36.125713 42.451427 37.745712 41.294285C 40.462616 38.033592 42.736595 34.428082 44.508572 30.571428ZM 21.185715 21.005714L 17.714285 19.411428C 17.359386 19.228056 17.203184 18.804081 17.354286 18.434286L 20.285713 12.571428C 20.682766 11.867694 21.38751 11.391516 22.18857 11.285714M 22.18857 11.285714C 22.18857 11.285714 25.351427 11.285714 29.362858 19L 27.279999 21.571428L 35.919998 21.571428L 38.98 13.497143L 35.380001 14.602857C 35.273399 13.466255 34.552921 12.479302 33.502857 12.031428C 31.730474 11.444677 29.864618 11.191828 28 11.285714Z"></path></g></g></g><g id="g-root-tx_reuserep_1qapx4nics1z8-stroke" data-item-order="1000000000" data-item-id="tx_reuserep_1qapx4nics1z8" data-item-class="Label Stroke Indexed ColorStrokeBlack" data-item-index="4" data-renderer-id="0" transform="translate(219.52859497070312, 207.62188720703125)"></g><g id="g-root-tx_dispose_mbpwxjics1e1-stroke" data-item-order="1000000000" data-item-id="tx_dispose_mbpwxjics1e1" data-item-class="Label Stroke Indexed ColorStrokeBlack" data-item-index="7" data-renderer-id="0" transform="translate(219.52859497070312, 387.6219482421875)"></g><g id="g-root-bag_1qbyygnicp8gd-stroke" data-item-order="1000000000" data-item-id="bag_1qbyygnicp8gd" data-item-class="Icon Stroke Indexed" data-item-index="5" data-renderer-id="0" transform="translate(171.52859497070312, 261.62188720703125)"><g id="bag_1qbyygnicp8gd-stroke" fill="none" stroke-linecap="round" stroke-linejoin="round" stroke-miterlimit="4" stroke="#4682e3" stroke-width="2"><g><path d="M 15.25 22.75L 40.75 22.75C 40.75 22.75 42.25 22.75 42.25 24.25L 42.25 43.75C 42.25 43.75 42.25 45.25 40.75 45.25L 15.25 45.25C 15.25 45.25 13.75 45.25 13.75 43.75L 13.75 24.25C 13.75 24.25 13.75 22.75 15.25 22.75M 21.25 19.6285L 21.25 17.5C 21.25 13.772079 24.272079 10.75 28 10.75C 31.727921 10.75 34.75 13.772079 34.75 17.5L 34.75 19.6285M 32.516499 28.75L 31.766499 31.75L 28.766499 31.75M 20.5105 34.75L 23.5105 34.75L 24.2605 37.75M 31.024 42.980499L 29.2255 40.75L 31.024 38.480499M 33.491501 35.543499L 35.083 38.543499C 35.329128 39.008266 35.313873 39.567989 35.042797 40.018661C 34.771717 40.46933 34.284416 40.745117 33.758499 40.745499L 29.2255 40.745499M 25.066 30.737499L 26.749001 27.877001C 27.014481 27.425354 27.496365 27.144941 28.020203 27.13728C 28.544041 27.129616 29.033922 27.395813 29.3125 27.8395L 31.766499 31.75M 25.0105 40.75L 22.460501 40.75C 21.914995 40.749798 21.412603 40.453461 21.148529 39.976135C 20.884457 39.498806 20.900337 38.915749 21.190001 38.453499L 23.5105 34.75"></path></g></g></g><g id="g-root-tx_recycle_4l2divics0lf-stroke" data-item-order="1000000000" data-item-id="tx_recycle_4l2divics0lf" data-item-class="Label Stroke Indexed ColorStrokeBlack" data-item-index="5" data-renderer-id="0" transform="translate(219.52859497070312, 267.62188720703125)"></g><g id="g-root-2_1q5q7ljicql1d-stroke" data-item-order="1000000000" data-item-id="2_1q5q7ljicql1d" data-item-class="Icon Stroke Indexed Indexed_1" data-item-index="1" data-renderer-id="0" transform="translate(171.52859497070312, 21.62188720703125)"><g id="2_1q5q7ljicql1d-stroke" fill="none" stroke-linecap="round" stroke-linejoin="round" stroke-miterlimit="4" stroke="#3bc482" stroke-width="2"><g><path d="M 10.75 19.7605L 45.25 19.7605M 40.75 19.75L 40.75 42.25C 40.75 43.906857 39.406857 45.25 37.75 45.25L 18.25 45.25C 16.593145 45.25 15.25 43.906857 15.25 42.25L 15.25 19.75M 13.75 19.75L 13.75 18.25C 13.75 16.593145 15.093145 15.25 16.75 15.25L 39.25 15.25C 40.906857 15.25 42.25 16.593145 42.25 18.25L 42.25 19.75M 23.5 15.25C 23.5 12.764719 25.514719 10.75 28 10.75C 30.485283 10.75 32.5 12.764719 32.5 15.25M 28 25L 28 39.25M 34.75 25L 34.75 39.25M 21.25 25L 21.25 39.25"></path></g></g></g><g id="g-root-wate_dhyf3ricp69w-stroke" data-item-order="1000000000" data-item-id="wate_dhyf3ricp69w" data-item-class="Icon Stroke Indexed" data-item-index="6" data-renderer-id="0" transform="translate(171.52859497070312, 321.62188720703125)"><g id="wate_dhyf3ricp69w-stroke" fill="none" stroke-linecap="round" stroke-linejoin="round" stroke-miterlimit="4" stroke="#b65edf" stroke-width="2"><g><path d="M 41.5 27.400002L 42.474998 28.375C 42.611099 28.520016 42.801117 28.602276 42.999996 28.602276C 43.198875 28.602276 43.388901 28.520016 43.524998 28.374998L 44.5 27.400002M 45.25 44.334999C 41.485001 45.114998 39.16 41.334999 39.16 41.334999L 39.16 41.334999C 37.993916 43.239746 35.947227 44.42942 33.715 44.5C 31.521038 44.390678 29.510227 43.243237 28.299999 41.409996L 28.299999 41.41C 27.121063 43.283699 25.083017 44.443474 22.869999 44.499996C 20.68461 44.364132 18.692703 43.20126 17.5 41.364998L 17.5 41.364998C 17.5 41.364998 14.5 45.175003 10.81 44.364998M 21.25 23.5C 21.115 22.119999 21.865 16 28 16C 34.135002 16 34.885002 22.09 34.75 23.5M 21.25 44.215L 21.25 23.5C 25.528927 21.50518 30.471073 21.50518 34.75 23.5L 34.75 44.364998M 25.75 26.5L 25.75 31M 30.25 26.5L 30.25 32.5M 25.75 34L 25.75 38.5M 30.25 35.5L 30.25 37.75M 39.25 13L 40.224998 13.975C 40.516632 14.260857 40.983368 14.260857 41.275002 13.975L 42.25 13M 11.5 25L 12.475 25.974998C 12.766633 26.260857 13.233367 26.260857 13.525 25.974998L 14.5 25M 18.25 28.360001C 17.262379 26.655682 16.744759 24.719788 16.75 22.75C 16.75 16.536797 21.786797 11.500001 28.000002 11.500001C 34.213203 11.500001 39.25 16.536797 39.25 22.75C 39.255238 24.719788 38.737621 26.655682 37.75 28.360001"></path></g></g></g><g id="g-root-tx_treatmen_90vvnbicrzt6-stroke" data-item-order="1000000000" data-item-id="tx_treatmen_90vvnbicrzt6" data-item-class="Label Stroke Indexed ColorStrokeBlack" data-item-index="6" data-renderer-id="0" transform="translate(219.52859497070312, 327.62188720703125)"></g><g id="g-root-2_qssgdzicp7ur-stroke" data-item-order="1000000000" data-item-id="2_qssgdzicp7ur" data-item-class="Icon Stroke Indexed" data-item-index="7" data-renderer-id="0" transform="translate(171.52859497070312, 381.6219482421875)"><g id="2_qssgdzicp7ur-stroke" fill="none" stroke-linecap="round" stroke-linejoin="round" stroke-miterlimit="4" stroke="#e15e5a" stroke-width="2"><g><path d="M 12.571428 19L 43.42857 19M 16.428572 19L 39.571426 19L 39.571426 19L 39.571426 42.142857C 39.571426 43.563019 38.420162 44.714287 37 44.714287L 19 44.714287C 17.57984 44.714287 16.428572 43.563019 16.428572 42.142857L 16.428572 19L 16.428572 19ZM 21.571428 19L 21.571428 17.714285C 21.571428 14.163884 24.449598 11.285714 28 11.285714C 31.550402 11.285714 34.42857 14.163884 34.42857 17.714285L 34.42857 19M 24.142857 24.142857L 24.142857 38.285713M 31.857143 24.142857L 31.857143 38.285713"></path></g></g></g><g id="g-root-tx_avoid_zofdh3ics1zb-stroke" data-item-order="1000000000" data-item-id="tx_avoid_zofdh3ics1zb" data-item-class="Label Stroke Indexed Indexed_1 ColorStrokeBlack" data-item-index="1" data-renderer-id="0" transform="translate(219.52859497070312, 27.62188720703125)"></g></g></g></svg>